nColumns=19
nRows=25
DataType=double
version=3
OpenSimVersion=4.1
endheader
time	ground_force_calcn_r_vx	ground_force_calcn_r_vy	ground_force_calcn_r_vz	ground_force_calcn_r_px	ground_force_calcn_r_py	ground_force_calcn_r_pz	ground_force_calcn_r_mx	ground_force_calcn_r_my	ground_force_calcn_r_mz	ground_force_calcn_l_vx	ground_force_calcn_l_vy	ground_force_calcn_l_vz	ground_force_calcn_l_px	ground_force_calcn_l_py	ground_force_calcn_l_pz	ground_force_calcn_l_mx	ground_force_calcn_l_my	ground_force_calcn_l_mz
1.12	-22.2049	129.52	-24.921	-0.318166	0	-0.448099	0.00762677	-0.0444865	0.00855968	-84.4328	199.287	51.3413	-0.285237	0	-0.769625	-0.24008	0.566662	0.145986
1.13	-58.1607	785.985	-81.3618	-0.299216	0	-0.45204	0.105075	-1.41999	0.146991	-168.746	746.507	48.3763	-0.284208	0	-0.756849	-0.118449	0.524001	0.0339571
1.14	-69.6609	1050.51	-31.7841	-0.28972	0	-0.457671	0.152094	-2.29362	0.0693955	-97.9503	787.658	-76.8203	-0.282403	0	-0.744319	-0.197956	1.59185	-0.155253
1.15	-109.836	580.01	35.6359	-0.275677	0	-0.46294	0.0269824	-0.142485	-0.00875431	-136.808	540.684	-17.4113	-0.250823	0	-0.752376	-1.05456	4.16775	-0.134211
1.16	-157.19	282.159	-1.838	-0.222756	0	-0.451293	0.394354	-0.707874	0.00461113	-204.778	393.156	42.1288	-0.203278	0	-0.767015	-0.626014	1.20189	0.128789
1.17	-205.488	249.648	-38.226	-0.179113	0	-0.439263	0.28756	-0.349358	0.0534934	-226.718	380.03	65.5717	-0.181761	0	-0.771914	-0.0484478	0.0812094	0.0140121
1.18	-246.154	340.325	-33.0004	-0.176665	0	-0.445546	0.43637	-0.603311	0.0585013	-234.728	427.7	70.6051	-0.179553	0	-0.771645	-0.318645	0.580605	0.0958468
1.19	-221.825	461.125	0.539107	-0.187887	0	-0.453635	1.14112	-2.37213	-0.00277329	-215.755	490.238	56.6416	-0.183704	0	-0.769043	-1.09605	2.49044	0.287743
1.2	-150.93	572.371	16.4998	-0.200555	0	-0.457848	1.00344	-3.80536	-0.109698	-165.346	570.638	36.6971	-0.194505	0	-0.764642	-1.47018	5.07385	0.326293
1.21	-99.4099	636.724	-2.51398	-0.206472	0	-0.456473	0.563126	-3.60684	0.0142409	-108.794	650.42	27.8489	-0.206898	0	-0.760878	-1.09873	6.56871	0.281251
1.22	-81.3008	646.87	-18.4892	-0.205692	0	-0.453961	0.403189	-3.20797	0.0916919	-69.0875	689.975	33.1563	-0.214296	0	-0.759596	-0.681499	6.80611	0.327063
1.23	-75.1688	622.397	-9.62956	-0.200422	0	-0.453406	0.480885	-3.98172	0.0616042	-58.3538	679.568	38.0626	-0.213692	0	-0.759881	-0.607294	7.07233	0.396122
1.24	-83.42	583.137	0.980887	-0.190148	0	-0.452477	0.750276	-5.24471	-0.00882206	-68.1861	636.344	38.4414	-0.20592	0	-0.761081	-0.788852	7.36193	0.444732
1.25	-98.5973	554.89	-1.63044	-0.17903	0	-0.450463	0.995305	-5.60142	0.0164588	-84.037	595.906	36.3751	-0.19622	0	-0.762177	-1.05092	7.45204	0.454885
1.26	-101.167	558.039	-8.4548	-0.1734	0	-0.4493	0.945075	-5.21304	0.0789824	-90.7327	580.539	32.156	-0.189723	0	-0.762048	-1.15493	7.38962	0.409311
1.27	-91.9962	584.305	-11.5304	-0.172527	0	-0.449456	0.771981	-4.90316	0.0967564	-87.7586	587.784	26.7775	-0.186741	0	-0.760829	-1.07204	7.18023	0.327108
1.28	-81.1906	610.786	-12.4926	-0.172558	0	-0.449669	0.637848	-4.79844	0.0981437	-79.5168	600.652	20.7566	-0.185256	0	-0.759249	-0.926683	6.99995	0.241896
1.29	-71.653	632.62	-12.3169	-0.172988	0	-0.449681	0.549604	-4.85242	0.0944753	-67.2382	612.352	12.2468	-0.184917	0	-0.757522	-0.794829	7.23867	0.14477
1.3	-62.2848	652.328	-12.3549	-0.174129	0	-0.449733	0.469372	-4.91589	0.0931056	-55.5459	623.84	4.26617	-0.18515	0	-0.75599	-0.687729	7.72393	0.0528206
1.31	-54.5241	660.309	-13.0202	-0.174859	0	-0.449335	0.404773	-4.90197	0.0966588	-48.9771	626.472	1.54613	-0.184561	0	-0.755236	-0.620887	7.94185	0.0196004
1.32	-50.2952	652.292	-12.4174	-0.17446	0	-0.448445	0.3821	-4.95556	0.0943367	-47.0871	614.882	3.27102	-0.182647	0	-0.755283	-0.603841	7.8852	0.0419473
1.33	-47.4956	637.328	-11.4885	-0.173796	0	-0.447335	0.370755	-4.97505	0.0896806	-47.2302	598.9	4.71367	-0.180418	0	-0.755501	-0.630339	7.99299	0.0629092
1.34	-41.4311	626.93	-12.9808	-0.174311	0	-0.446011	0.313924	-4.75026	0.0983555	-44.9263	586.391	3.37547	-0.179325	0	-0.755278	-0.640331	8.35777	0.0481103
1.35	-30.7613	624.384	-17.2345	-0.176707	0	-0.444596	0.21009	-4.26434	0.117706	-37.7956	578.36	0.78063	-0.179692	0	-0.754632	-0.566275	8.66531	0.0116958
1.36	-17.9853	625.862	-21.67	-0.180287	0	-0.443579	0.108567	-3.77798	0.13081	-29.7217	575.019	1.29973	-0.180987	0	-0.753834	-0.446587	8.64002	0.0195293
